<?xml version="1.0" encoding="iso-8859-1"?>
<!-- Uploaded to: SVG Repo, www.svgrepo.com, Generator: SVG Repo Mixer Tools -->
<!DOCTYPE svg PUBLIC "-//W3C//DTD SVG 1.1//EN" "http://www.w3.org/Graphics/SVG/1.1/DTD/svg11.dtd">
<svg fill="#000000" height="800px" width="800px" version="1.1" id="Capa_1" xmlns="http://www.w3.org/2000/svg"
	 viewBox="0 0 297 297" xml:space="preserve">
<g>
	<path d="M174.64,128.312c0-28.018-22.772-51.622-50.79-51.622c-23.684,0-44.551,16.771-49.618,39.876
		c-0.584,2.662-2.546,4.809-5.143,5.632c-15.113,4.784-25.267,18.655-25.267,34.519c0,4.208-3.41,7.618-7.618,7.618
		C16.241,164.335,0,180.576,0,200.54c0,19.962,16.241,36.204,36.204,36.204h160.683c28.018,0,50.812-22.794,50.812-50.812
		c0-28.017-22.794-50.811-50.812-50.811c-4.319,0-8.609,0.542-12.747,1.612c-2.318,0.6-4.789,0.073-6.664-1.425
		C175.603,133.81,174.567,130.709,174.64,128.312z"/>
	<path d="M255.317,93.123c-4.208,0-7.618-3.41-7.618-7.618c0-13.923-11.326-25.249-25.249-25.249
		c-9.082,0-17.508,4.923-21.99,12.848c-1.524,2.694-4.53,4.199-7.6,3.806c-1.152-0.148-2.223-0.22-3.277-0.22
		c-6.469,0-12.371,2.453-16.842,6.469c9.128,10.056,15.215,22.921,16.765,37.134c2.445-0.272,4.909-0.409,7.38-0.409
		c33.014,0,60.448,24.347,65.289,56.029C281.907,172.632,297,155.452,297,134.806C297,111.822,278.301,93.123,255.317,93.123z"/>
</g>
</svg>
