<?xml version="1.0" encoding="utf-8"?>

<!DOCTYPE svg PUBLIC "-//W3C//DTD SVG 1.1//EN" "http://www.w3.org/Graphics/SVG/1.1/DTD/svg11.dtd">
<!-- Uploaded to: SVG Repo, www.svgrepo.com, Generator: SVG Repo Mixer Tools -->
<svg height="800px" width="800px" version="1.1" id="_x32_" xmlns="http://www.w3.org/2000/svg"
	 viewBox="0 0 512 512"  xml:space="preserve">
<style type="text/css">
	.st0{fill:#000000;}
</style>
<g>
	<path class="st0" d="M493.118,60.602c-40.138,17.719-93.777,20.322-143.881-0.447C324.872,50.055,273.523,25.223,255.999,0
		c-17.521,25.223-68.871,50.055-93.236,60.154C112.657,80.924,59.021,78.32,18.88,60.602c-7.203-3.182-15.096,2.08-15.096,9.955
		C3.784,493.475,255.999,512,255.999,512s252.217-18.525,252.217-441.443C508.216,62.682,500.323,57.42,493.118,60.602z
		 M89.155,125.33c32.033,0,63.305-6.23,92.947-18.518c16.129-6.686,46.719-20.51,73.896-39.258
		c27.178,18.748,57.77,32.572,73.898,39.258c29.647,12.289,60.918,18.52,92.949,18.518c11.256,0,22.45-0.801,33.428-2.367
		C439.72,416.264,284.815,456.182,255.999,461.07c-28.814-4.889-183.72-44.807-200.273-338.108
		C66.704,124.531,77.899,125.33,89.155,125.33z"/>
	<path class="st0" d="M255.999,409.279c29.94-8.686,119.684-49.879,144.676-234.27c-30.955-2.328-61.182-9.543-90.117-21.539
		c-12.354-5.121-32.789-14.211-54.559-26.502c-21.768,12.291-42.201,21.381-54.556,26.502
		c-28.932,11.994-59.156,19.209-90.117,21.539C136.317,359.4,226.06,400.594,255.999,409.279z"/>
</g>
</svg>
